<svg width="425" height="122" viewBox="0 0 425 122" fill="none" xmlns="http://www.w3.org/2000/svg">
<path d="M95.376 52V51.846C95.596 50.9953 95.706 49.5067 95.706 47.38V41.22C95.706 39.0933 95.596 37.6047 95.376 36.754V36.6H98.302V36.754C98.214 37.106 98.1333 37.8173 98.06 38.888C98.0013 39.944 97.972 40.7433 97.972 41.286V47.468C97.972 48.436 98.016 49.4847 98.104 50.614C98.4267 50.658 99.0133 50.68 99.864 50.68C102.108 50.68 103.751 50.4453 104.792 49.976H104.946L104.55 52H95.376ZM110.17 52.242C108.63 52.242 107.427 51.7653 106.562 50.812C105.696 49.8587 105.264 48.6047 105.264 47.05C105.264 45.4807 105.748 44.1093 106.716 42.936C107.684 41.7627 108.886 41.176 110.324 41.176C112.949 41.176 114.262 42.7967 114.262 46.038L113.448 46.83H107.596C107.596 48.062 107.86 48.986 108.388 49.602C108.916 50.218 109.627 50.526 110.522 50.526C110.874 50.526 111.372 50.4233 112.018 50.218C112.663 49.998 113.235 49.7413 113.734 49.448L114.284 50.284C114.005 50.5627 113.396 50.9587 112.458 51.472C111.534 51.9853 110.771 52.242 110.17 52.242ZM109.928 42.276C109.312 42.276 108.835 42.4153 108.498 42.694C108.219 43.0753 107.999 43.5593 107.838 44.146C107.676 44.7327 107.596 45.246 107.596 45.686L112.106 45.51C112.106 43.354 111.38 42.276 109.928 42.276ZM123.065 41.176C124.121 41.176 124.935 41.5133 125.507 42.188C126.093 42.8627 126.387 43.8307 126.387 45.092V48.26C126.387 49.6533 126.607 50.8487 127.047 51.846V52H123.945V51.846C124.194 51.1127 124.319 50.1373 124.319 48.92V45.554C124.319 44.7033 124.187 44.0653 123.923 43.64C123.673 43.2 123.16 42.98 122.383 42.98C121.605 42.98 120.608 43.354 119.391 44.102V48.26C119.391 49.6827 119.603 50.878 120.029 51.846V52H116.949V51.846C117.198 51.1127 117.323 50.1373 117.323 48.92V45.18C117.323 44.5493 117.191 43.9333 116.927 43.332C116.677 42.716 116.384 42.3053 116.047 42.1L116.025 41.836L118.907 41.154L119.039 41.374C119.156 41.9167 119.244 42.4667 119.303 43.024C119.845 42.5987 120.263 42.2833 120.557 42.078C120.865 41.8727 121.253 41.6747 121.723 41.484C122.192 41.2787 122.639 41.176 123.065 41.176ZM133.657 52.242C132.132 52.242 130.995 51.7287 130.247 50.702C129.499 49.6607 129.125 48.3553 129.125 46.786C129.125 45.2167 129.602 43.8893 130.555 42.804C131.523 41.7187 132.74 41.176 134.207 41.176C135.028 41.176 135.842 41.3153 136.649 41.594V39.086C136.649 37.9127 136.312 37.0033 135.637 36.358V36.094L138.651 35.566L138.783 35.786C138.739 36.2113 138.717 36.82 138.717 37.612V48.502C138.717 49.162 138.82 49.7927 139.025 50.394C139.23 50.9807 139.494 51.384 139.817 51.604L139.861 51.824L137.463 52.396C137.316 52.0293 137.133 51.428 136.913 50.592C135.784 51.692 134.698 52.242 133.657 52.242ZM132.623 49.954C133.048 50.394 133.628 50.614 134.361 50.614C135.094 50.614 135.857 50.262 136.649 49.558V43.354C135.886 42.7967 134.933 42.518 133.789 42.518C133.129 42.518 132.623 42.65 132.271 42.914C131.728 43.7793 131.457 44.9747 131.457 46.5C131.457 48.0253 131.846 49.1767 132.623 49.954ZM146.357 52.264C144.817 52.264 143.6 51.78 142.705 50.812C141.811 49.8293 141.363 48.5533 141.363 46.984C141.363 45.4 141.884 44.036 142.925 42.892C143.967 41.748 145.272 41.176 146.841 41.176C148.425 41.176 149.643 41.6527 150.493 42.606C151.359 43.5593 151.791 44.8353 151.791 46.434C151.791 48.0327 151.271 49.404 150.229 50.548C149.188 51.692 147.897 52.264 146.357 52.264ZM149.459 46.984C149.459 45.532 149.232 44.41 148.777 43.618C148.323 42.826 147.516 42.43 146.357 42.43C145.609 42.43 145.023 42.5913 144.597 42.914C144.333 43.2513 144.113 43.7647 143.937 44.454C143.776 45.1433 143.695 45.8033 143.695 46.434C143.695 49.4993 144.781 51.032 146.951 51.032C147.626 51.032 148.176 50.878 148.601 50.57C148.88 50.2327 149.093 49.712 149.239 49.008C149.386 48.304 149.459 47.6293 149.459 46.984Z" fill="#9C9C9D"/>
<path d="M201.986 52.264C199.889 52.264 198.209 51.5307 196.948 50.064C195.701 48.5827 195.078 46.7053 195.078 44.432C195.078 42.144 195.789 40.2153 197.212 38.646C198.649 37.0767 200.453 36.292 202.624 36.292C204.795 36.292 206.481 37.0107 207.684 38.448C208.887 39.8853 209.488 41.726 209.488 43.97C209.488 46.7567 208.513 48.9787 206.562 50.636C207.853 51.8387 208.967 52.682 209.906 53.166L209.928 53.298L207.464 54.178C206.613 53.1367 205.851 52.2567 205.176 51.538C204.179 52.022 203.115 52.264 201.986 52.264ZM207.002 44.432C207.002 42.6573 206.672 41.1687 206.012 39.966C205.645 39.3207 205.125 38.8147 204.45 38.448C203.775 38.0813 202.881 37.898 201.766 37.898C200.651 37.898 199.727 38.1253 198.994 38.58C198.041 39.7827 197.564 41.6013 197.564 44.036C197.564 45.84 197.916 47.3653 198.62 48.612C198.987 49.272 199.522 49.8 200.226 50.196C200.945 50.5773 201.795 50.768 202.778 50.768C203.291 50.768 203.775 50.702 204.23 50.57C203.863 50.1887 203.167 49.5213 202.14 48.568V48.48L203.658 47.82C204.113 48.3627 204.78 49.03 205.66 49.822C206.555 48.5313 207.002 46.7347 207.002 44.432ZM215.515 52.242C214.283 52.242 213.418 51.9267 212.919 51.296C212.435 50.6507 212.193 49.6607 212.193 48.326V45.18C212.193 43.7867 211.973 42.5913 211.533 41.594V41.44H214.591V41.594C214.371 42.3713 214.261 43.3467 214.261 44.52V47.974C214.261 48.854 214.371 49.4847 214.591 49.866C214.811 50.2473 215.346 50.438 216.197 50.438C217.048 50.438 218.045 50.0347 219.189 49.228V45.18C219.189 43.7573 218.976 42.562 218.551 41.594V41.44H221.587V41.594C221.367 42.3713 221.257 43.3467 221.257 44.52V48.238C221.257 48.8833 221.367 49.5213 221.587 50.152C221.807 50.768 222.064 51.1787 222.357 51.384L222.379 51.648L219.805 52.264C219.556 51.5893 219.38 50.944 219.277 50.328C218.558 50.944 217.906 51.4207 217.319 51.758C216.732 52.0807 216.131 52.242 215.515 52.242ZM229.211 52.242C227.671 52.242 226.469 51.7653 225.603 50.812C224.738 49.8587 224.305 48.6047 224.305 47.05C224.305 45.4807 224.789 44.1093 225.757 42.936C226.725 41.7627 227.928 41.176 229.365 41.176C231.991 41.176 233.303 42.7967 233.303 46.038L232.489 46.83H226.637C226.637 48.062 226.901 48.986 227.429 49.602C227.957 50.218 228.669 50.526 229.563 50.526C229.915 50.526 230.414 50.4233 231.059 50.218C231.705 49.998 232.277 49.7413 232.775 49.448L233.325 50.284C233.047 50.5627 232.438 50.9587 231.499 51.472C230.575 51.9853 229.813 52.242 229.211 52.242ZM228.969 42.276C228.353 42.276 227.877 42.4153 227.539 42.694C227.261 43.0753 227.041 43.5593 226.879 44.146C226.718 44.7327 226.637 45.246 226.637 45.686L231.147 45.51C231.147 43.354 230.421 42.276 228.969 42.276ZM241.424 41.176C241.879 41.176 242.216 41.2273 242.436 41.33C242.436 41.418 242.436 41.506 242.436 41.594C242.436 42.4593 242.304 43.244 242.04 43.948C241.38 43.5227 240.632 43.31 239.796 43.31C239.342 43.31 238.887 43.3907 238.432 43.552V48.26C238.432 49.6827 238.645 50.878 239.07 51.846V52H235.99V51.846C236.24 51.1127 236.364 50.1373 236.364 48.92V45.18C236.364 44.5493 236.232 43.9333 235.968 43.332C235.719 42.716 235.426 42.3053 235.088 42.1L235.066 41.836L237.662 41.154C237.897 41.55 238.088 42.012 238.234 42.54C239.114 41.6307 240.178 41.176 241.424 41.176ZM248.023 52.264C246.483 52.264 245.266 51.78 244.371 50.812C243.477 49.8293 243.029 48.5533 243.029 46.984C243.029 45.4 243.55 44.036 244.591 42.892C245.633 41.748 246.938 41.176 248.507 41.176C250.091 41.176 251.309 41.6527 252.159 42.606C253.025 43.5593 253.457 44.8353 253.457 46.434C253.457 48.0327 252.937 49.404 251.895 50.548C250.854 51.692 249.563 52.264 248.023 52.264ZM251.125 46.984C251.125 45.532 250.898 44.41 250.443 43.618C249.989 42.826 249.182 42.43 248.023 42.43C247.275 42.43 246.689 42.5913 246.263 42.914C245.999 43.2513 245.779 43.7647 245.603 44.454C245.442 45.1433 245.361 45.8033 245.361 46.434C245.361 49.4993 246.447 51.032 248.617 51.032C249.292 51.032 249.842 50.878 250.267 50.57C250.546 50.2327 250.759 49.712 250.905 49.008C251.052 48.304 251.125 47.6293 251.125 46.984ZM263.492 52H260.654V51.736C260.904 51.0027 261.028 49.844 261.028 48.26V39.086C261.028 37.9127 260.691 37.0033 260.016 36.358V36.094L263.03 35.566L263.162 35.786C263.118 36.2113 263.096 37.6193 263.096 40.01L263.118 48.26C263.118 49.844 263.243 51.0027 263.492 51.736V52ZM270.371 52.242C268.831 52.242 267.628 51.7653 266.763 50.812C265.898 49.8587 265.465 48.6047 265.465 47.05C265.465 45.4807 265.949 44.1093 266.917 42.936C267.885 41.7627 269.088 41.176 270.525 41.176C273.15 41.176 274.463 42.7967 274.463 46.038L273.649 46.83H267.797C267.797 48.062 268.061 48.986 268.589 49.602C269.117 50.218 269.828 50.526 270.723 50.526C271.075 50.526 271.574 50.4233 272.219 50.218C272.864 49.998 273.436 49.7413 273.935 49.448L274.485 50.284C274.206 50.5627 273.598 50.9587 272.659 51.472C271.735 51.9853 270.972 52.242 270.371 52.242ZM270.129 42.276C269.513 42.276 269.036 42.4153 268.699 42.694C268.42 43.0753 268.2 43.5593 268.039 44.146C267.878 44.7327 267.797 45.246 267.797 45.686L272.307 45.51C272.307 43.354 271.581 42.276 270.129 42.276ZM282.584 41.176C283.039 41.176 283.376 41.2273 283.596 41.33C283.596 41.418 283.596 41.506 283.596 41.594C283.596 42.4593 283.464 43.244 283.2 43.948C282.54 43.5227 281.792 43.31 280.956 43.31C280.502 43.31 280.047 43.3907 279.592 43.552V48.26C279.592 49.6827 279.805 50.878 280.23 51.846V52H277.15V51.846C277.4 51.1127 277.524 50.1373 277.524 48.92V45.18C277.524 44.5493 277.392 43.9333 277.128 43.332C276.879 42.716 276.586 42.3053 276.248 42.1L276.226 41.836L278.822 41.154C279.057 41.55 279.248 42.012 279.394 42.54C280.274 41.6307 281.338 41.176 282.584 41.176Z" fill="#9C9C9D"/>
<path d="M333.228 46.632C332.641 46.6173 331.813 46.61 330.742 46.61C329.671 46.61 328.857 46.6173 328.3 46.632C327.889 48.2747 327.633 49.3673 327.53 49.91C327.442 50.438 327.398 51.01 327.398 51.626V52H324.406V51.78C325.066 51.2667 325.946 49.2353 327.046 45.686C328.161 42.122 328.879 39.79 329.202 38.69C329.539 37.59 329.723 36.886 329.752 36.578L332.326 36.314C332.326 36.8273 332.788 38.4333 333.712 41.132C334.636 43.816 335.377 45.8913 335.934 47.358C336.506 48.8247 336.946 49.844 337.254 50.416C337.562 50.988 337.907 51.4427 338.288 51.78V52H334.592V51.626C334.592 51.098 334.519 50.6067 334.372 50.152C334.24 49.6973 334.152 49.404 334.108 49.272L333.228 46.632ZM330.676 38.228C330.383 39.0053 329.679 41.3887 328.564 45.378H332.854C332.59 44.5713 332.201 43.3027 331.688 41.572C331.175 39.8413 330.837 38.7267 330.676 38.228ZM340.251 41.528C340.251 41.9533 340.545 43.0607 341.131 44.85L342.781 49.932L344.629 44.366C344.937 43.398 345.091 42.5107 345.091 41.704V41.44H347.401V41.704C347.005 42.0707 346.624 42.782 346.257 43.838L343.771 51.032L343.463 52.154L341.417 52.242L341.043 50.988L338.425 43.75C338.015 42.7087 337.626 42.0633 337.259 41.814V41.55L340.251 41.264V41.528ZM354.422 47.6C353.82 47.38 353.124 47.27 352.332 47.27C351.554 47.27 350.99 47.3947 350.638 47.644C350.418 47.9813 350.308 48.436 350.308 49.008C350.308 49.5653 350.462 50.0053 350.77 50.328C351.078 50.6507 351.459 50.812 351.914 50.812C352.383 50.812 352.86 50.6947 353.344 50.46C353.828 50.2107 354.187 49.9467 354.422 49.668V47.6ZM354.774 50.768C353.879 51.7507 352.867 52.242 351.738 52.242C350.623 52.242 349.743 52 349.098 51.516C348.467 51.032 348.152 50.2547 348.152 49.184C348.152 48.0987 348.526 47.3213 349.274 46.852C350.036 46.3827 351.107 46.148 352.486 46.148L354.422 46.214V44.96C354.422 44.1827 354.231 43.552 353.85 43.068C353.468 42.584 352.889 42.342 352.112 42.342C351.54 42.3567 350.623 42.9067 349.362 43.992C348.936 43.4493 348.636 42.7453 348.46 41.88C349.912 41.4107 351.246 41.176 352.464 41.176C353.681 41.176 354.656 41.4913 355.39 42.122C356.123 42.7527 356.49 43.6473 356.49 44.806V48.502C356.504 49.162 356.607 49.778 356.798 50.35C357.003 50.9073 357.267 51.296 357.59 51.516L357.634 51.736L355.28 52.308C355.089 51.8387 354.92 51.3253 354.774 50.768ZM362.389 52H359.551V51.736C359.8 51.0027 359.925 49.844 359.925 48.26V39.086C359.925 37.9127 359.587 37.0033 358.913 36.358V36.094L361.927 35.566L362.059 35.786C362.015 36.2113 361.993 37.6193 361.993 40.01L362.015 48.26C362.015 49.844 362.139 51.0027 362.389 51.736V52ZM365.527 48.942V44.674C365.527 43.3687 365.161 42.4593 364.427 41.946V41.682L367.529 41.154L367.661 41.374C367.617 41.7993 367.595 42.408 367.595 43.2V48.392C367.595 49.8587 367.779 51.01 368.145 51.846V52H365.175V51.846C365.41 51.1567 365.527 50.1887 365.527 48.942ZM367.375 36.424C367.581 36.6 367.683 37.0253 367.683 37.7C367.683 37.8613 367.676 38.008 367.661 38.14L367.485 38.294C366.899 38.4553 366.202 38.5727 365.395 38.646L365.197 38.558C364.977 38.1767 364.867 37.6707 364.867 37.04C364.867 36.9667 364.867 36.8933 364.867 36.82L365.043 36.666C365.747 36.4313 366.422 36.314 367.067 36.314C367.141 36.314 367.243 36.3507 367.375 36.424ZM376.256 47.6C375.654 47.38 374.958 47.27 374.166 47.27C373.388 47.27 372.824 47.3947 372.472 47.644C372.252 47.9813 372.142 48.436 372.142 49.008C372.142 49.5653 372.296 50.0053 372.604 50.328C372.912 50.6507 373.293 50.812 373.748 50.812C374.217 50.812 374.694 50.6947 375.178 50.46C375.662 50.2107 376.021 49.9467 376.256 49.668V47.6ZM376.608 50.768C375.713 51.7507 374.701 52.242 373.572 52.242C372.457 52.242 371.577 52 370.932 51.516C370.301 51.032 369.986 50.2547 369.986 49.184C369.986 48.0987 370.36 47.3213 371.108 46.852C371.87 46.3827 372.941 46.148 374.32 46.148L376.256 46.214V44.96C376.256 44.1827 376.065 43.552 375.684 43.068C375.302 42.584 374.723 42.342 373.946 42.342C373.374 42.3567 372.457 42.9067 371.196 43.992C370.77 43.4493 370.47 42.7453 370.294 41.88C371.746 41.4107 373.08 41.176 374.298 41.176C375.515 41.176 376.49 41.4913 377.224 42.122C377.957 42.7527 378.324 43.6473 378.324 44.806V48.502C378.338 49.162 378.441 49.778 378.632 50.35C378.837 50.9073 379.101 51.296 379.424 51.516L379.468 51.736L377.114 52.308C376.923 51.8387 376.754 51.3253 376.608 50.768ZM384.724 42.672C384.24 42.9653 383.858 43.4787 383.58 44.212C383.301 44.9307 383.162 45.796 383.162 46.808C383.162 47.8053 383.36 48.678 383.756 49.426C384.166 50.174 384.812 50.548 385.692 50.548C386.278 50.548 386.96 50.416 387.738 50.152C388.515 49.8733 389.028 49.6387 389.278 49.448L389.828 50.306C388.405 51.318 387.232 51.934 386.308 52.154L385.472 53.496C385.618 53.452 385.89 53.43 386.286 53.43C386.682 53.4447 387.048 53.584 387.386 53.848C387.738 54.1267 387.914 54.5373 387.914 55.08C387.914 55.6373 387.679 56.0847 387.21 56.422C386.74 56.7593 386.176 56.928 385.516 56.928C385.178 56.928 384.768 56.8473 384.284 56.686C383.8 56.5393 383.462 56.4073 383.272 56.29L383.624 55.586C384.122 55.8353 384.614 55.96 385.098 55.96C385.86 55.96 386.242 55.63 386.242 54.97C386.242 54.662 386.154 54.42 385.978 54.244C385.758 54.1413 385.494 54.09 385.186 54.09C384.892 54.09 384.592 54.1193 384.284 54.178L384.152 53.98L384.988 52.22C383.697 52.088 382.678 51.538 381.93 50.57C381.196 49.5873 380.83 48.3187 380.83 46.764C380.83 45.1947 381.372 43.8673 382.458 42.782C383.558 41.6967 384.804 41.154 386.198 41.154C387.606 41.154 388.772 41.4693 389.696 42.1C389.124 43.0093 388.75 43.5593 388.574 43.75C387.576 42.9873 386.623 42.606 385.714 42.606C385.376 42.606 385.046 42.628 384.724 42.672ZM398.281 39.482C397.929 39.482 397.379 39.306 396.631 38.954C395.897 38.602 395.347 38.426 394.981 38.426C394.497 38.426 393.932 38.6533 393.287 39.108C393.169 39.196 393.096 39.2473 393.067 39.262L392.627 38.866C392.979 38.426 393.419 37.9713 393.947 37.502C394.489 37.018 394.922 36.776 395.245 36.776C395.582 36.776 396.103 36.9373 396.807 37.26C397.525 37.568 398.068 37.722 398.435 37.722C398.816 37.722 399.461 37.4507 400.371 36.908L400.789 37.282C399.659 38.7487 398.823 39.482 398.281 39.482ZM396.389 52.264C394.849 52.264 393.631 51.78 392.737 50.812C391.842 49.8293 391.395 48.5533 391.395 46.984C391.395 45.4 391.915 44.036 392.957 42.892C393.998 41.748 395.303 41.176 396.873 41.176C398.457 41.176 399.674 41.6527 400.525 42.606C401.39 43.5593 401.823 44.8353 401.823 46.434C401.823 48.0327 401.302 49.404 400.261 50.548C399.219 51.692 397.929 52.264 396.389 52.264ZM399.491 46.984C399.491 45.532 399.263 44.41 398.809 43.618C398.354 42.826 397.547 42.43 396.389 42.43C395.641 42.43 395.054 42.5913 394.629 42.914C394.365 43.2513 394.145 43.7647 393.969 44.454C393.807 45.1433 393.727 45.8033 393.727 46.434C393.727 49.4993 394.812 51.032 396.983 51.032C397.657 51.032 398.207 50.878 398.633 50.57C398.911 50.2327 399.124 49.712 399.271 49.008C399.417 48.304 399.491 47.6293 399.491 46.984ZM408.434 52.242C406.894 52.242 405.692 51.7653 404.826 50.812C403.961 49.8587 403.528 48.6047 403.528 47.05C403.528 45.4807 404.012 44.1093 404.98 42.936C405.948 41.7627 407.151 41.176 408.588 41.176C411.214 41.176 412.526 42.7967 412.526 46.038L411.712 46.83H405.86C405.86 48.062 406.124 48.986 406.652 49.602C407.18 50.218 407.892 50.526 408.786 50.526C409.138 50.526 409.637 50.4233 410.282 50.218C410.928 49.998 411.5 49.7413 411.998 49.448L412.548 50.284C412.27 50.5627 411.661 50.9587 410.722 51.472C409.798 51.9853 409.036 52.242 408.434 52.242ZM408.192 42.276C407.576 42.276 407.1 42.4153 406.762 42.694C406.484 43.0753 406.264 43.5593 406.102 44.146C405.941 44.7327 405.86 45.246 405.86 45.686L410.37 45.51C410.37 43.354 409.644 42.276 408.192 42.276ZM416.753 42.562C416.489 42.826 416.357 43.1927 416.357 43.662C416.357 44.1167 416.504 44.476 416.797 44.74C417.091 44.9893 417.457 45.1727 417.897 45.29C418.352 45.4073 418.836 45.554 419.349 45.73C419.863 45.906 420.339 46.0967 420.779 46.302C421.234 46.4927 421.608 46.808 421.901 47.248C422.195 47.688 422.341 48.2233 422.341 48.854C422.341 49.9687 421.931 50.812 421.109 51.384C420.288 51.956 419.203 52.242 417.853 52.242C416.519 52.242 415.331 51.8973 414.289 51.208C414.333 50.46 414.553 49.7927 414.949 49.206C416.269 50.4087 417.472 51.01 418.557 51.01C419.027 51.01 419.445 50.9147 419.811 50.724C420.163 50.416 420.339 50.0053 420.339 49.492C420.339 48.964 420.134 48.5607 419.723 48.282C419.327 47.9887 418.843 47.7613 418.271 47.6C417.699 47.4387 417.127 47.2553 416.555 47.05C415.983 46.8447 415.492 46.522 415.081 46.082C414.685 45.642 414.487 45.07 414.487 44.366C414.487 43.3393 414.869 42.5547 415.631 42.012C416.409 41.4547 417.384 41.176 418.557 41.176C419.731 41.176 420.882 41.4253 422.011 41.924C421.879 42.5693 421.623 43.2147 421.241 43.86C420.2 42.8187 419.115 42.298 417.985 42.298C417.501 42.298 417.091 42.386 416.753 42.562Z" fill="#9C9C9D"/>
<path d="M123.518 71.434V78.22C123.518 79.96 123.608 81.178 123.788 81.874V82H121.52V81.874C121.7 81.178 121.79 79.96 121.79 78.22V72.838C121.79 71.962 121.772 71.374 121.736 71.074C120.92 71.254 120.176 71.362 119.504 71.398L119.36 70.588C120.512 70.384 121.49 69.988 122.294 69.4H123.59L123.518 71.434Z" fill="white"/>
<path d="M2.376 52V51.846C2.596 50.9953 2.706 49.5067 2.706 47.38V41.22C2.706 39.0933 2.596 37.6047 2.376 36.754V36.6H5.302V36.754C5.214 37.106 5.13333 37.8173 5.06 38.888C5.00133 39.944 4.972 40.7433 4.972 41.286V47.468C4.972 48.436 5.016 49.4847 5.104 50.614C5.42667 50.658 6.01333 50.68 6.864 50.68C9.108 50.68 10.7507 50.4453 11.792 49.976H11.946L11.55 52H2.376ZM13.4296 48.942V44.674C13.4296 43.3687 13.063 42.4593 12.3296 41.946V41.682L15.4316 41.154L15.5636 41.374C15.5196 41.7993 15.4976 42.408 15.4976 43.2V48.392C15.4976 49.8587 15.681 51.01 16.0476 51.846V52H13.0776V51.846C13.3123 51.1567 13.4296 50.1887 13.4296 48.942ZM15.2776 36.424C15.483 36.6 15.5856 37.0253 15.5856 37.7C15.5856 37.8613 15.5783 38.008 15.5636 38.14L15.3876 38.294C14.801 38.4553 14.1043 38.5727 13.2976 38.646L13.0996 38.558C12.8796 38.1767 12.7696 37.6707 12.7696 37.04C12.7696 36.9667 12.7696 36.8933 12.7696 36.82L12.9456 36.666C13.6496 36.4313 14.3243 36.314 14.9696 36.314C15.043 36.314 15.1456 36.3507 15.2776 36.424ZM22.5079 52.242C20.9826 52.242 19.8459 51.7287 19.0979 50.702C18.3499 49.6607 17.9759 48.3553 17.9759 46.786C17.9759 45.2167 18.4526 43.8893 19.4059 42.804C20.3739 41.7187 21.5912 41.176 23.0579 41.176C23.8792 41.176 24.6932 41.3153 25.4999 41.594V39.086C25.4999 37.9127 25.1626 37.0033 24.4879 36.358V36.094L27.5019 35.566L27.6339 35.786C27.5899 36.2113 27.5679 36.82 27.5679 37.612V48.502C27.5679 49.162 27.6706 49.7927 27.8759 50.394C28.0812 50.9807 28.3452 51.384 28.6679 51.604L28.7119 51.824L26.3139 52.396C26.1672 52.0293 25.9839 51.428 25.7639 50.592C24.6346 51.692 23.5492 52.242 22.5079 52.242ZM21.4739 49.954C21.8992 50.394 22.4786 50.614 23.2119 50.614C23.9452 50.614 24.7079 50.262 25.4999 49.558V43.354C24.7372 42.7967 23.7839 42.518 22.6399 42.518C21.9799 42.518 21.4739 42.65 21.1219 42.914C20.5792 43.7793 20.3079 44.9747 20.3079 46.5C20.3079 48.0253 20.6966 49.1767 21.4739 49.954ZM35.2083 52.264C33.6683 52.264 32.4509 51.78 31.5563 50.812C30.6616 49.8293 30.2143 48.5533 30.2143 46.984C30.2143 45.4 30.7349 44.036 31.7763 42.892C32.8176 41.748 34.1229 41.176 35.6923 41.176C37.2763 41.176 38.4936 41.6527 39.3443 42.606C40.2096 43.5593 40.6423 44.8353 40.6423 46.434C40.6423 48.0327 40.1216 49.404 39.0803 50.548C38.0389 51.692 36.7483 52.264 35.2083 52.264ZM38.3103 46.984C38.3103 45.532 38.0829 44.41 37.6283 43.618C37.1736 42.826 36.3669 42.43 35.2083 42.43C34.4603 42.43 33.8736 42.5913 33.4483 42.914C33.1843 43.2513 32.9643 43.7647 32.7883 44.454C32.6269 45.1433 32.5463 45.8033 32.5463 46.434C32.5463 49.4993 33.6316 51.032 35.8023 51.032C36.4769 51.032 37.0269 50.878 37.4523 50.57C37.7309 50.2327 37.9436 49.712 38.0903 49.008C38.2369 48.304 38.3103 47.6293 38.3103 46.984ZM44.9218 42.562C44.6578 42.826 44.5258 43.1927 44.5258 43.662C44.5258 44.1167 44.6724 44.476 44.9658 44.74C45.2591 44.9893 45.6258 45.1727 46.0658 45.29C46.5204 45.4073 47.0044 45.554 47.5178 45.73C48.0311 45.906 48.5078 46.0967 48.9478 46.302C49.4024 46.4927 49.7764 46.808 50.0698 47.248C50.3631 47.688 50.5098 48.2233 50.5098 48.854C50.5098 49.9687 50.0991 50.812 49.2778 51.384C48.4564 51.956 47.3711 52.242 46.0218 52.242C44.6871 52.242 43.4991 51.8973 42.4578 51.208C42.5018 50.46 42.7218 49.7927 43.1178 49.206C44.4378 50.4087 45.6404 51.01 46.7258 51.01C47.1951 51.01 47.6131 50.9147 47.9798 50.724C48.3318 50.416 48.5078 50.0053 48.5078 49.492C48.5078 48.964 48.3024 48.5607 47.8918 48.282C47.4958 47.9887 47.0118 47.7613 46.4398 47.6C45.8678 47.4387 45.2958 47.2553 44.7238 47.05C44.1518 46.8447 43.6604 46.522 43.2498 46.082C42.8538 45.642 42.6558 45.07 42.6558 44.366C42.6558 43.3393 43.0371 42.5547 43.7998 42.012C44.5771 41.4547 45.5524 41.176 46.7258 41.176C47.8991 41.176 49.0504 41.4253 50.1798 41.924C50.0478 42.5693 49.7911 43.2147 49.4098 43.86C48.3684 42.8187 47.2831 42.298 46.1538 42.298C45.6698 42.298 45.2591 42.386 44.9218 42.562Z" fill="#9C9C9D"/>
<path d="M18.518 72.434V79.22C18.518 80.96 18.608 82.178 18.788 82.874V83H16.52V82.874C16.7 82.178 16.79 80.96 16.79 79.22V73.838C16.79 72.962 16.772 72.374 16.736 72.074C15.92 72.254 15.176 72.362 14.504 72.398L14.36 71.588C15.512 71.384 16.49 70.988 17.294 70.4H18.59L18.518 72.434ZM28.8144 79.13C28.8144 80.318 28.4304 81.296 27.6624 82.064C26.9064 82.82 25.8564 83.198 24.5124 83.198C23.1804 83.198 21.9744 82.892 20.8944 82.28C20.8944 82.232 20.8944 82.19 20.8944 82.154C20.8944 81.578 21.0504 81.116 21.3624 80.768C22.5264 81.656 23.5884 82.1 24.5484 82.1C25.2804 82.1 25.8204 81.986 26.1684 81.758C26.7204 81.23 26.9964 80.384 26.9964 79.22C26.9964 78.332 26.7984 77.702 26.4024 77.33C26.0184 76.958 25.4124 76.772 24.5844 76.772C23.7564 76.772 23.1804 76.796 22.8564 76.844H22.7844L22.4784 75.728H24.0084C24.6564 75.728 25.1844 75.476 25.5924 74.972C26.0004 74.468 26.2044 73.892 26.2044 73.244C26.2044 71.888 25.6884 71.21 24.6564 71.21C23.8044 71.21 22.9044 71.618 21.9564 72.434C21.6444 72.002 21.4524 71.432 21.3804 70.724C22.5324 70.364 23.6844 70.184 24.8364 70.184C26.9004 70.184 27.9324 71.06 27.9324 72.812C27.9324 73.652 27.7164 74.354 27.2844 74.918C26.8644 75.47 26.4144 75.818 25.9344 75.962C27.8544 76.202 28.8144 77.258 28.8144 79.13ZM33.4207 70.4L37.5247 70.382L37.5427 70.454C37.2907 70.934 36.5887 72.758 35.4367 75.926C34.2967 79.082 33.6007 81.458 33.3487 83.054H30.7927L30.7747 82.928C32.5867 79.652 34.2727 75.92 35.8327 71.732C35.3287 71.684 34.7527 71.66 34.1047 71.66C32.3887 71.66 31.1767 72.014 30.4687 72.722H30.2707L29.8207 70.346C31.1887 70.382 32.3887 70.4 33.4207 70.4Z" fill="white"/>
<path d="M230.21 73.154C230.21 71.918 229.664 71.3 228.572 71.3C227.756 71.3 226.736 71.828 225.512 72.884C225.104 72.392 224.87 71.78 224.81 71.048C226.178 70.472 227.438 70.184 228.59 70.184C229.754 70.184 230.63 70.436 231.218 70.94C231.818 71.444 232.118 72.14 232.118 73.028C232.118 74.336 231.476 75.836 230.192 77.528C229.544 78.38 228.986 79.076 228.518 79.616C228.05 80.156 227.408 80.858 226.592 81.722C227.504 81.722 228.14 81.716 228.5 81.704C230.624 81.632 231.992 81.332 232.604 80.804L232.766 80.93L232.028 83H225.044L224.702 82.118C226.862 79.802 228.296 78.032 229.004 76.808C229.808 75.428 230.21 74.21 230.21 73.154ZM240.446 79.562C240.446 81.086 240.512 82.19 240.644 82.874V83H238.61V82.874C238.718 82.202 238.784 81.158 238.808 79.742V79.562C235.856 79.562 234.176 79.568 233.768 79.58L233.354 78.716C234.602 76.424 236.264 73.652 238.34 70.4L240.482 70.184C240.434 71.24 240.41 73.928 240.41 78.248C240.662 78.248 241.01 78.23 241.454 78.194C241.898 78.158 242.18 78.14 242.3 78.14L242.012 79.562H240.446ZM238.844 78.284V71.66C236.744 75.08 235.418 77.306 234.866 78.338C234.962 78.338 236.288 78.32 238.844 78.284ZM251.343 79.13C251.343 80.318 250.959 81.296 250.191 82.064C249.435 82.82 248.385 83.198 247.041 83.198C245.709 83.198 244.503 82.892 243.423 82.28C243.423 82.232 243.423 82.19 243.423 82.154C243.423 81.578 243.579 81.116 243.891 80.768C245.055 81.656 246.117 82.1 247.077 82.1C247.809 82.1 248.349 81.986 248.697 81.758C249.249 81.23 249.525 80.384 249.525 79.22C249.525 78.332 249.327 77.702 248.931 77.33C248.547 76.958 247.941 76.772 247.113 76.772C246.285 76.772 245.709 76.796 245.385 76.844H245.313L245.007 75.728H246.537C247.185 75.728 247.713 75.476 248.121 74.972C248.529 74.468 248.733 73.892 248.733 73.244C248.733 71.888 248.217 71.21 247.185 71.21C246.333 71.21 245.433 71.618 244.485 72.434C244.173 72.002 243.981 71.432 243.909 70.724C245.061 70.364 246.213 70.184 247.365 70.184C249.429 70.184 250.461 71.06 250.461 72.812C250.461 73.652 250.245 74.354 249.813 74.918C249.393 75.47 248.943 75.818 248.463 75.962C250.383 76.202 251.343 77.258 251.343 79.13Z" fill="white"/>
<path d="M371.518 72.434V79.22C371.518 80.96 371.608 82.178 371.788 82.874V83H369.52V82.874C369.7 82.178 369.79 80.96 369.79 79.22V73.838C369.79 72.962 369.772 72.374 369.736 72.074C368.92 72.254 368.176 72.362 367.504 72.398L367.36 71.588C368.512 71.384 369.49 70.988 370.294 70.4H371.59L371.518 72.434ZM381.814 79.13C381.814 80.318 381.43 81.296 380.662 82.064C379.906 82.82 378.856 83.198 377.512 83.198C376.18 83.198 374.974 82.892 373.894 82.28C373.894 82.232 373.894 82.19 373.894 82.154C373.894 81.578 374.05 81.116 374.362 80.768C375.526 81.656 376.588 82.1 377.548 82.1C378.28 82.1 378.82 81.986 379.168 81.758C379.72 81.23 379.996 80.384 379.996 79.22C379.996 78.332 379.798 77.702 379.402 77.33C379.018 76.958 378.412 76.772 377.584 76.772C376.756 76.772 376.18 76.796 375.856 76.844H375.784L375.478 75.728H377.008C377.656 75.728 378.184 75.476 378.592 74.972C379 74.468 379.204 73.892 379.204 73.244C379.204 71.888 378.688 71.21 377.656 71.21C376.804 71.21 375.904 71.618 374.956 72.434C374.644 72.002 374.452 71.432 374.38 70.724C375.532 70.364 376.684 70.184 377.836 70.184C379.9 70.184 380.932 71.06 380.932 72.812C380.932 73.652 380.716 74.354 380.284 74.918C379.864 75.47 379.414 75.818 378.934 75.962C380.854 76.202 381.814 77.258 381.814 79.13Z" fill="white"/>
</svg>
