<svg width="20" height="19" viewBox="0 0 20 19" fill="none" xmlns="http://www.w3.org/2000/svg">
<g filter="url(#filter0_d_240_286)">
<path d="M12.9422 6.94219L10.8836 9L12.9422 11.0578C13.0003 11.1159 13.0463 11.1848 13.0777 11.2607C13.1092 11.3366 13.1254 11.4179 13.1254 11.5C13.1254 11.5821 13.1092 11.6634 13.0777 11.7393C13.0463 11.8152 13.0003 11.8841 12.9422 11.9422C12.8841 12.0003 12.8152 12.0463 12.7393 12.0777C12.6634 12.1092 12.5821 12.1253 12.5 12.1253C12.4179 12.1253 12.3366 12.1092 12.2607 12.0777C12.1848 12.0463 12.1159 12.0003 12.0578 11.9422L10 9.88359L7.94219 11.9422C7.88412 12.0003 7.81518 12.0463 7.73931 12.0777C7.66344 12.1092 7.58213 12.1253 7.5 12.1253C7.41788 12.1253 7.33656 12.1092 7.26069 12.0777C7.18482 12.0463 7.11588 12.0003 7.05782 11.9422C6.99975 11.8841 6.95368 11.8152 6.92226 11.7393C6.89083 11.6634 6.87466 11.5821 6.87466 11.5C6.87466 11.4179 6.89083 11.3366 6.92226 11.2607C6.95368 11.1848 6.99975 11.1159 7.05782 11.0578L9.11641 9L7.05782 6.94219C6.94054 6.82491 6.87466 6.66585 6.87466 6.5C6.87466 6.33415 6.94054 6.17509 7.05782 6.05781C7.17509 5.94054 7.33415 5.87465 7.5 5.87465C7.66586 5.87465 7.82492 5.94054 7.94219 6.05781L10 8.11641L12.0578 6.05781C12.1159 5.99974 12.1848 5.95368 12.2607 5.92225C12.3366 5.89083 12.4179 5.87465 12.5 5.87465C12.5821 5.87465 12.6634 5.89083 12.7393 5.92225C12.8152 5.95368 12.8841 5.99974 12.9422 6.05781C13.0003 6.11588 13.0463 6.18482 13.0777 6.26069C13.1092 6.33656 13.1254 6.41788 13.1254 6.5C13.1254 6.58212 13.1092 6.66344 13.0777 6.73931C13.0463 6.81518 13.0003 6.88412 12.9422 6.94219ZM18.125 9C18.125 10.607 17.6485 12.1779 16.7557 13.514C15.8629 14.8502 14.594 15.8916 13.1093 16.5065C11.6247 17.1215 9.99099 17.2824 8.4149 16.9689C6.8388 16.6554 5.39106 15.8815 4.25476 14.7452C3.11846 13.6089 2.34463 12.1612 2.03112 10.5851C1.71762 9.00901 1.87852 7.37535 2.49348 5.8907C3.10844 4.40605 4.14985 3.1371 5.486 2.24431C6.82214 1.35152 8.39303 0.875 10 0.875C12.1542 0.877275 14.2195 1.73403 15.7427 3.25727C17.266 4.78051 18.1227 6.84581 18.125 9ZM16.875 9C16.875 7.64025 16.4718 6.31104 15.7164 5.18045C14.9609 4.04987 13.8872 3.16868 12.631 2.64833C11.3747 2.12798 9.99238 1.99183 8.65876 2.2571C7.32514 2.52237 6.10013 3.17716 5.13864 4.13864C4.17716 5.10013 3.52238 6.32513 3.2571 7.65875C2.99183 8.99237 3.12798 10.3747 3.64833 11.6309C4.16868 12.8872 5.04987 13.9609 6.18046 14.7164C7.31105 15.4718 8.64026 15.875 10 15.875C11.8227 15.8729 13.5702 15.1479 14.8591 13.8591C16.1479 12.5702 16.8729 10.8227 16.875 9Z" fill="#404588"/>
</g>
<defs>
<filter id="filter0_d_240_286" x="-2.125" y="0.875" width="24.25" height="24.25" filterUnits="userSpaceOnUse" color-interpolation-filters="sRGB">
<feFlood flood-opacity="0" result="BackgroundImageFix"/>
<feColorMatrix in="SourceAlpha" type="matrix" values="0 0 0 0 0 0 0 0 0 0 0 0 0 0 0 0 0 0 127 0" result="hardAlpha"/>
<feOffset dy="4"/>
<feGaussianBlur stdDeviation="2"/>
<feComposite in2="hardAlpha" operator="out"/>
<feColorMatrix type="matrix" values="0 0 0 0 0 0 0 0 0 0 0 0 0 0 0 0 0 0 0.25 0"/>
<feBlend mode="normal" in2="BackgroundImageFix" result="effect1_dropShadow_240_286"/>
<feBlend mode="normal" in="SourceGraphic" in2="effect1_dropShadow_240_286" result="shape"/>
</filter>
</defs>
</svg>
